Coordinates
version=1
nRows=5
nColumns=63
inDegrees=yes

Units are S.I. units (second, meters, Newtons, ...)
If the header above contains a line with 'inDegrees', this indicates whether rotational values are in degrees (yes) or radians (no).

endheader
time	pelvis_tilt	pelvis_list	pelvis_rotation	pelvis_tx	pelvis_ty	pelvis_tz	hip_flexion_r	hip_adduction_r	hip_rotation_r	knee_angle_r	knee_angle_r_beta	ankle_angle_r	subtalar_angle_r	mtp_angle_r	hip_flexion_l	hip_adduction_l	hip_rotation_l	knee_angle_l	knee_angle_l_beta	ankle_angle_l	subtalar_angle_l	mtp_angle_l	L5_S1_Flex_Ext	L5_S1_Lat_Bending	L5_S1_axial_rotation	L4_L5_Flex_Ext	L4_L5_Lat_Bending	L4_L5_axial_rotation	L3_L4_Flex_Ext	L3_L4_Lat_Bending	L3_L4_axial_rotation	L2_L3_Flex_Ext	L2_L3_Lat_Bending	L2_L3_axial_rotation	L1_L2_Flex_Ext	L1_L2_Lat_Bending	L1_L2_axial_rotation	L1_T12_Flex_Ext	L1_T12_Lat_Bending	L1_T12_axial_rotation	Abs_r3	Abs_r2	Abs_r1	Abs_t1	Abs_t2	neck_flexion	neck_bending	neck_rotation	arm_flex_r	arm_add_r	arm_rot_r	elbow_flex_r	pro_sup_r	wrist_flex_r	wrist_dev_r	arm_flex_l	arm_add_l	arm_rot_l	elbow_flex_l	pro_sup_l	wrist_flex_l	wrist_dev_l
      0.85000000	    -37.92642715	     10.62588721	    -68.48207607	     -0.10354056	      0.95403791	     -0.96822910	     28.02014843	    -24.50859843	    -29.77525215	     33.26649313	      0.58060984	      2.38930337	     15.52636212	      0.00000000	     44.92188678	    -26.19569730	     39.01395653	     48.19600540	      0.84117898	     15.64280891	    -18.85305647	      0.00000000	     -0.02112815	     -1.34714398	     -0.13871057	     -0.03923709	     -1.79170149	     -0.14737998	     -0.03471144	     -3.27544587	     -0.14737998	     -0.02414737	     -3.27544587	     -0.12137175	     -0.01961960	     -2.74709600	     -0.11270233	     -0.01207263	     -2.08672602	     -0.10403292	     -0.15091629	    -15.23916213	     -0.77146655	      0.00000000	      0.00000000	    -13.37309378	     17.04961036	    -11.54035228	    -37.77521755	    -41.75365832	   -105.80491641	    111.87347228	     89.99559364	      0.00000000	      0.00000000	     34.01980958	    -60.36006041	     42.27820922	     29.09356628	     89.99559364	      0.00000000	      0.00000000
      0.86666667	    -39.36888009	     11.18128966	    -68.06743876	     -0.10196516	      0.95517297	     -0.96473697	     29.90060446	    -23.28396485	    -32.11823776	     34.06036667	      0.59446554	     -1.30506494	     17.69567371	      0.00000000	     46.18409375	    -27.38732650	     39.58944395	     47.45214328	      0.82819614	     15.43899662	    -16.83471143	      0.00000000	     -0.01909268	     -1.16365677	      0.00167440	     -0.03545701	     -1.54766351	      0.00177905	     -0.03136736	     -2.82931508	      0.00177905	     -0.02182102	     -2.82931508	      0.00146510	     -0.01772946	     -2.37292889	      0.00136045	     -0.01090956	     -1.80250434	      0.00125580	     -0.13637708	    -13.16351815	      0.00931250	      0.00000000	      0.00000000	    -11.61341289	     15.78348295	    -11.53837815	    -37.75253288	    -42.26057420	   -106.62785580	    112.96090241	     89.99559364	      0.00000000	      0.00000000	     34.31533459	    -58.46773896	     38.47393371	     28.25770738	     89.99559364	      0.00000000	      0.00000000
      0.88333333	    -33.49670294	     10.00766662	    -88.76429953	     -0.10472683	      0.97272237	     -0.92105022	     33.43577969	    -17.35289958	    -16.26789658	     32.52033392	      0.56758690	     -0.70438570	     19.15659913	      0.00000000	     22.26803343	    -33.73408555	     16.76256557	     42.99241684	      0.75035923	     20.50758318	    -19.03320722	      0.00000000	     -0.01579556	     -1.55765910	      1.03302378	     -0.02933393	     -2.07168660	      1.09758777	     -0.02595052	     -3.78729233	      1.09758777	     -0.01805274	     -3.78729233	      0.90389581	     -0.01466775	     -3.17637843	      0.83933182	     -0.00902558	     -2.41281394	      0.77476784	     -0.11282609	    -17.62055123	      5.74536836	      0.00000000	      0.00000000	    -13.01440440	     12.29630988	      2.87133162	    -19.66289109	    -48.03859993	    -85.44550608	    118.30093411	     89.99559364	      0.00000000	      0.00000000	    -18.62494327	    -58.88149484	    -25.08015218	     40.38518578	     89.99559364	      0.00000000	      0.00000000
      0.90000000	    -41.56329445	     11.63594802	    -67.42555277	     -0.09684488	      0.95412653	     -0.96227652	     32.91086404	    -20.05988749	    -32.45980544	     35.96654719	      0.62773467	    -12.23853479	     14.70554151	      0.00000000	     48.20671627	    -29.14583295	     39.70417567	     46.80544920	      0.81690920	     18.22010136	    -14.29519041	      0.00000000	     -0.00726562	     -0.67125320	     -2.38026407	     -0.01349298	     -0.89276676	     -2.52903057	     -0.01193668	     -1.63208504	     -2.52903057	     -0.00830387	     -1.63208504	     -2.08273106	     -0.00674685	     -1.36881954	     -1.93396455	     -0.00415157	     -1.03977121	     -1.78519805	     -0.05189758	     -7.59335050	    -13.23831465	      0.00000000	      0.00000000	    -14.20980459	     11.32499505	      3.18317792	    -14.28518009	    -54.00564383	    -79.75620600	    114.61165862	     89.99559364	      0.00000000	      0.00000000	     -4.73005673	    -58.70553128	    -13.66305221	     36.98206390	     89.99559364	      0.00000000	      0.00000000
      0.91666667	    -40.81171938	     12.84029371	    -67.27343546	     -0.10316428	      0.95844590	     -0.95279942	     35.49796274	    -16.43421235	    -24.82229678	     33.89436122	      0.59156820	     -3.84141973	     19.45735783	      0.00000000	     47.06175732	    -29.28257214	     39.55205601	     44.10373936	      0.76975546	     15.80567944	    -15.37525362	      0.00000000	     -0.00762049	     -0.86983347	     -1.73936338	     -0.01415202	     -1.15687852	     -1.84807360	     -0.01251971	     -2.11491310	     -1.84807360	     -0.00870946	     -2.11491310	     -1.52194296	     -0.00707639	     -1.77376441	     -1.41323275	     -0.00435435	     -1.34737205	     -1.30452254	     -0.05443241	     -9.83973019	     -9.67381733	      0.00000000	      0.00000000	    -13.21360210	     14.84433516	     -0.41650081	    -21.83918457	    -50.94075317	    -88.68393390	    116.13853904	     89.99559364	      0.00000000	      0.00000000	      4.48099464	    -61.56577393	     -3.51573977	     43.35496021	     89.99559364	      0.00000000	      0.00000000
